<svg width="215" height="75" xmlns="http://www.w3.org/2000/svg">
 <metadata id="metadata18">image/svg+xml</metadata>

 <g>
  <title>background</title>
  <rect fill="none" id="canvas_background" height="77" width="217" y="-1" x="-1"/>
 </g>
 <g>
  <title>Layer 1</title>
  <g stroke="null" id="g4">
   <path stroke="null" fill="#008060" fill-rule="evenodd" d="m12.6551,12.82271l12.45259,0l12.58164,-12.4178l0.00127,0l12.58182,12.4178l12.45266,0l0,12.29194l12.58239,12.4178l-12.58239,12.41893l0,12.29013l-12.45266,0l-12.58233,12.41942l-12.58221,-12.41942l-12.45259,0l0,-12.29013l-12.58189,-12.41893l12.58189,-12.4178l0,-12.29194l-0.00019,0zm102.64584,49.41881l-6.25882,0l11.89176,-23.47334l6.25812,0l11.89124,23.47334l-6.25825,0l-1.87773,-3.7063l-13.76848,0l-1.87786,3.7063l0.00001,0zm-38.80346,-23.47334l24.0953,0c3.27012,0 5.9453,2.64037 5.9453,5.86869l0,0c0,3.2277 -2.67519,5.86857 -5.9453,5.86857c3.27012,0 5.9453,2.63987 5.9453,5.86806l0,0c0,3.22782 -2.67519,5.868 -5.9453,5.868l-24.0953,0l0,-23.47334l0,0.00001zm0,-25.94547l6.25773,0l0,9.88436l17.52514,0l0,-9.88436l6.25773,0l0,23.47495l-6.25773,0l0,-9.88429l-17.52514,0l0,9.88429l-6.25773,0l0,-23.47495zm56.32753,23.47495l6.25825,0l-11.89124,-23.47495l-6.25812,0l-11.89176,23.47495l6.25882,0l1.87786,-3.7068l13.76848,0l1.87773,3.7068l-0.00001,0zm-8.76178,-17.29695l5.00669,9.88436l-10.0139,0l5.0072,-9.88436l0.00001,0zm17.52463,-6.178l6.25773,0l0,19.76816l17.52457,0l0,3.7068l-23.7823,0l0,-23.47495zm32.54409,13.59066l0,9.88429l-6.25875,0l0,-9.88429l-11.89163,-13.59066l6.25875,0l8.76234,9.88436l8.76228,-9.88436l6.25812,0l-11.89112,13.59066l0.00001,0zm13.76955,-13.59066l6.25882,0l0,9.88436l13.76898,-9.88436l6.88437,0l-16.14702,11.73732l16.14702,11.73763l-6.88437,0l-13.76898,-9.88429l0,9.88429l-6.25882,0l0,-23.47495zm-3.0044,37.68273l16.14707,-11.73726l-6.88386,0l-13.76898,9.88374l0,-9.88374l-6.25937,0l0,23.47334l6.25937,0l0,-9.88323l13.76898,9.88323l6.88386,0l-16.14707,-11.73608zm-43.30923,-11.73726l6.25773,0l17.52457,17.29658l0,-17.29658l6.2583,0l0,23.47334l-6.2583,0l0,0l-17.52457,-17.29589l0,17.29589l-6.25773,0l0,-23.47334zm-58.83265,3.70592l0,6.1778l14.39529,0c1.72117,0 3.12984,-1.38981 3.12984,-3.08862l0,0c0,-1.69931 -1.40868,-3.08918 -3.12984,-3.08918l-14.39529,0zm0,9.88417l0,6.17694l14.39529,0c1.72117,0 3.12984,-1.38987 3.12984,-3.08813l0,0c0,-1.69881 -1.40868,-3.08881 -3.12984,-3.08881l-14.39529,0zm46.3147,2.47064l-5.00669,-9.8833l-5.0072,9.8833l10.0139,0l-0.00001,0z" id="path6"/>
   <path stroke="null" fill="#008060" fill-rule="evenodd" d="m12.6551,12.82271l12.45259,0l12.58164,-12.4178l0.00127,0l12.58182,12.4178l12.45266,0l0,12.29194l12.58239,12.4178l-12.58239,12.41893l0,12.29013l-12.45266,0l-12.58233,12.41942l-12.58221,-12.41942l-12.45259,0l0,-12.29013l-12.58189,-12.41893l12.58189,-12.4178l0,-12.29194l-0.00019,0zm102.64584,49.41881l-6.25882,0l11.89176,-23.47321l6.25812,0l11.89124,23.47321l-6.25825,0l-1.87773,-3.7063l-13.76848,0l-1.87786,3.7063l0.00001,0zm-38.80346,-23.47321l24.0953,0c3.27012,0 5.9453,2.64024 5.9453,5.86857l0,0c0,3.2277 -2.67519,5.86857 -5.9453,5.86857c3.27012,0 5.9453,2.63987 5.9453,5.86806l0,0c0,3.22782 -2.67519,5.868 -5.9453,5.868l-24.0953,0l0,-23.47321zm0,-25.94559l6.25773,0l0,9.88436l17.52514,0l0,-9.88436l6.25773,0l0,23.47495l-6.25773,0l0,-9.88429l-17.52514,0l0,9.88429l-6.25773,0l0,-23.47495zm56.32753,23.47495l6.25825,0l-11.89124,-23.47495l-6.25812,0l-11.89176,23.47495l6.25882,0l1.87786,-3.7068l13.76848,0l1.87773,3.7068l-0.00001,0zm-8.76178,-17.29695l5.00669,9.88436l-10.0139,0l5.0072,-9.88436l0.00001,0zm17.52463,-6.178l6.25773,0l0,19.76816l17.52457,0l0,3.7068l-23.7823,0l0,-23.47495zm32.54409,13.59066l0,9.88429l-6.25875,0l0,-9.88429l-11.89163,-13.59066l6.25875,0l8.76234,9.88436l8.76228,-9.88436l6.25825,0l-11.89124,13.59066zm13.76955,-13.59066l6.25882,0l0,9.88436l13.76898,-9.88436l6.88437,0l-16.14702,11.73732l16.14702,11.73763l-6.88437,0l-13.76898,-9.88429l0,9.88429l-6.25882,0l0,-23.47495zm-3.00422,37.68273l16.14689,-11.73714l-6.88386,0l-13.76898,9.88362l0,-9.88362l-6.25937,0l0,23.47321l6.25937,0l0,-9.88323l13.76898,9.88323l6.88386,0l-16.14689,-11.73608l0,0.00001zm-43.30942,-11.73714l6.25773,0l17.52457,17.29646l0,-17.29646l6.2583,0l0,23.47321l-6.2583,0l0,0l-17.52457,-17.29589l0,17.29589l-6.25773,0l0,-23.47321zm-58.83265,3.7058l0,6.1778l14.39529,0c1.72117,0 3.12984,-1.38981 3.12984,-3.08862l0,0c0,-1.69931 -1.40868,-3.08918 -3.12984,-3.08918l-14.39529,0zm0,9.88417l0,6.17694l14.39529,0c1.72117,0 3.12984,-1.38987 3.12984,-3.08813l0,0c0,-1.69881 -1.40868,-3.08881 -3.12984,-3.08881l-14.39529,0zm46.3147,2.47064l-5.00669,-9.8833l-5.0072,9.8833l10.0139,0l-0.00001,0z" id="path8"/>
   <path stroke="null" fill="#fcaf17" fill-rule="evenodd" d="m2.28585,37.5327l13.49891,-13.32354l0,-8.29715l8.40636,0l13.49885,-13.32347l13.49891,13.32347l8.40636,0l0,8.29715l13.49891,13.32354l-13.49891,13.32347l0,8.29715l-8.40636,0l-13.49891,13.32347l-13.49885,-13.32347l-8.40636,0l0,-8.29715l-13.49891,-13.32347zm13.49891,8.95464c5.22695,-6.2198 13.11034,-10.18987 21.90521,-10.19011c6.78892,-0.00025 12.32507,-5.46449 12.32507,-12.16514c0,-3.16402 -1.23451,-6.05257 -3.25251,-8.22007l0.00127,0l-9.07358,-8.95563l-9.07352,8.95563l-12.83169,12.66505l-9.07358,8.95563l9.07358,8.95563l0,-0.00124l-0.00026,0.00025l0.00001,0.00001zm43.81048,-17.91027l0,0.00063c-5.22695,6.21986 -13.11034,10.18987 -21.90527,10.19011c-6.78885,0.00025 -12.32501,5.46449 -12.32501,12.16514c0,3.16402 1.23451,6.05257 3.25251,8.22007l-0.00127,0l9.07352,8.95563l9.07358,-8.95563l12.83169,-12.66499l9.07358,-8.95563l-9.07358,-8.95563l0.00026,0.00031l-0.00001,-0.00001z" id="path10"/>
   <path stroke="null" fill="#231f20" fill-rule="evenodd" d="m62.72489,74.66093l0,-5.12746l1.21039,0l0,1.98886l3.77516,0l0,-1.98886l1.22149,0l0,5.12746l-1.22149,0l0,-2.20695l-3.77516,0l0,2.20695l-1.21039,0zm0.03845,-69.12845l2.47671,-2.63258l-2.51515,-2.495l1.60444,0l1.66782,1.73994l1.585,-1.73994l1.39239,0l-2.2714,2.35599l2.80649,2.77159l-1.64403,0l-1.90905,-1.98631l-1.75855,1.98631l-1.43469,0l0.00001,0zm9.71844,-2.04811l2.28145,0l-1.13078,-2.08419l-1.15066,2.08419zm-2.32955,2.04811l2.93534,-5.12758l1.17068,0l2.98844,5.12758l-1.36341,0l-0.62562,-1.12226l-3.29986,0l-0.60573,1.12226l-1.19984,0l-0.00001,0zm11.31557,-5.12758l3.00637,5.12758l-1.38348,0l-2.10941,-3.70524l-2.00658,3.70524l-1.21348,0l2.86824,-5.12758l0.83836,0l-0.00001,0zm7.78094,4.24129l-2.72739,0l0,-1.3609l2.72739,0c0.20852,0 0.35239,0.03072 0.43377,0.0901c0.07216,0.06306 0.10922,0.16886 0.10922,0.31828l0,0.54789c0,0.14836 -0.03706,0.25453 -0.10922,0.31759c-0.07923,0.05788 -0.22386,0.08704 -0.43377,0.08704zm-3.9167,-4.24129l0,5.12758l4.44907,0c0.4111,0 0.7133,-0.07608 0.91071,-0.22855c0.18093,-0.15895 0.27379,-0.41504 0.27379,-0.76616l0,-1.14264c0,-0.34264 -0.09287,-0.59468 -0.27379,-0.75345c-0.19362,-0.15933 -0.49658,-0.23796 -0.91071,-0.23796l-3.25977,0l0,-1.99883l-1.1893,0l-0.00001,0zm6.40912,5.13693l0,-5.13693l1.25211,0l0,5.13693l-1.25211,0zm3.01766,-0.00934l0,-5.12758l1.22403,0l0,2.13735l2.88503,-2.13735l1.75816,0l-3.45231,2.4153l3.8754,2.71228l-1.94951,0l-3.11677,-2.25442l0,2.25442l-1.22403,0l0.00001,0zm15.5565,-0.8863l-2.72525,0l0,-1.3609l2.72525,0c0.2053,0 0.34987,0.03072 0.43377,0.0901c0.07431,0.06306 0.11136,0.16886 0.11136,0.31828l0,0.54789c0,0.14836 -0.03706,0.25453 -0.11136,0.31759c-0.0798,0.05788 -0.22525,0.08704 -0.43377,0.08704zm-3.91594,-4.24129l0,5.12758l4.45103,0c0.40946,0 0.7133,-0.07608 0.91064,-0.22855c0.17935,-0.15895 0.27058,-0.41504 0.27058,-0.7651l0,-1.14264c0,-0.34264 -0.09123,-0.59362 -0.27058,-0.75451c-0.19412,-0.15721 -0.49816,-0.23653 -0.91064,-0.23653l-3.26033,0l0,-1.11379l3.92673,0l0.345,-0.88648l-4.27174,0l-1.19069,0l0.00001,0.00001zm8.94322,3.07947l2.28145,0l-1.13116,-2.08419l-1.15029,2.08419zm-2.32993,2.04811l2.93565,-5.12758l1.17074,0l2.98755,5.12758l-1.36234,0l-0.62581,-1.12226l-3.30144,0l-0.60472,1.12226l-1.19965,0l0.00001,0zm8.16445,0l0,-5.12758l1.21291,0l0,1.98843l3.78318,0l0,-1.98843l1.22295,0l0,5.12758l-1.22295,0l0,-2.20495l-3.78318,0l0,2.20495l-1.21291,0zm7.7113,0l0,-5.12758l1.22352,0l0,2.13735l2.88503,-2.13735l1.75766,0l-3.45181,2.4153l3.87592,2.71228l-1.95002,0l-3.11677,-2.25442l0,2.25442l-1.22352,0zm11.68854,0l0,-5.12758l1.22295,0l0,2.13735l2.88572,-2.13735l1.75804,0l-3.45288,2.4153l3.87649,2.71228l-1.95008,0l-3.11728,-2.25442l0,2.25442l-1.22295,0l-0.00001,0zm11.66006,-0.8863l-2.72581,0l0,-1.3609l2.72581,0c0.20883,0 0.3534,0.03072 0.43414,0.0901c0.07279,0.06306 0.10985,0.16886 0.10985,0.31828l0,0.54789c0,0.14836 -0.03706,0.25453 -0.10985,0.31759c-0.0791,0.05788 -0.22373,0.08704 -0.43414,0.08704zm-3.91563,-4.24129l0,5.12758l4.4485,0c0.4116,0 0.71387,-0.07608 0.91071,-0.22855c0.18143,-0.15895 0.2743,-0.41504 0.2743,-0.76616l0,-1.14264c0,-0.34264 -0.09287,-0.59468 -0.2743,-0.75345c-0.19362,-0.15933 -0.49658,-0.23796 -0.91071,-0.23796l-3.25869,0l0,-1.99883l-1.1898,0l-0.00001,0zm6.40855,5.13693l0,-5.13693l1.25211,0l0,5.13693l-1.25211,0zm6.81391,-4.25045l-2.7236,0l0,1.36016l2.7236,0c0.21155,0 0.35662,-0.02966 0.43357,-0.08954c0.07499,-0.05882 0.11187,-0.16512 0.11187,-0.31722l0,-0.54683c0,-0.1521 -0.03686,-0.25715 -0.11187,-0.31759c-0.07696,-0.06037 -0.22203,-0.08898 -0.43357,-0.08898zm-3.91455,4.2411l0,-5.12758l4.448,0l0.01913,0c0.39923,0.00249 0.69721,0.07857 0.89101,0.2303c0.18143,0.15721 0.27222,0.41187 0.27222,0.76497l0,1.14207c0,0.34476 -0.09079,0.59624 -0.27222,0.75451c-0.19362,0.16144 -0.49658,0.24114 -0.91014,0.24114l-3.25705,0l0,1.99459l-1.19094,0l-0.00001,0zm6.92471,0l0,-5.12758l4.75216,0l-0.56387,0.89633l-2.97594,0l0,4.23126l-1.21234,0l0,-0.00001zm9.89129,-0.8863l-2.72614,0l0,-1.3609l2.72614,0c0.20903,0 0.35359,0.03072 0.43427,0.0901c0.07285,0.06306 0.10922,0.16886 0.10922,0.31828l0,0.54789c0,0.14836 -0.03636,0.25453 -0.10922,0.31759c-0.07904,0.05788 -0.22417,0.08704 -0.43427,0.08704zm-3.91543,-4.24129l0,5.12758l4.44888,0c0.41053,0 0.71293,-0.07608 0.91014,-0.22855c0.18219,-0.15895 0.27449,-0.41504 0.27449,-0.76616l0,-1.14264c0,-0.34264 -0.0923,-0.59468 -0.27449,-0.75345c-0.19362,-0.15933 -0.49639,-0.23796 -0.91014,-0.23796l-3.25958,0l0,-1.99883l-1.1893,0zm6.40855,5.13693l0,-5.13693l1.25211,0l0,5.13693l-1.25211,0zm4.25312,-4.22185l3.27088,0l0,1.09509l-1.78702,0l0,1.00306l1.78702,0l0,1.15247l-3.27088,0l0,-1.10413l-1.21133,0.24855l0,0.60615c0,0.46296 0.0875,0.78067 0.26382,0.95452c0.18681,0.17079 0.53023,0.25677 1.02984,0.25677l3.31772,0c0.13781,0 0.29027,-0.0286 0.4587,-0.08443c0.16925,-0.05615 0.31546,-0.15664 0.43787,-0.30146c0.12349,-0.14574 0.18522,-0.33753 0.18522,-0.57599l0,-0.94406c0,-0.21834 -0.04924,-0.37255 -0.14621,-0.46314c-0.09773,-0.09116 -0.24374,-0.18843 -0.43951,-0.29267c0.16142,-0.06605 0.29974,-0.15827 0.41464,-0.27286c0.11401,-0.1134 0.17108,-0.2478 0.17108,-0.40153l0,-0.57805c0,-0.46134 -0.08768,-0.77912 -0.26451,-0.95346c-0.18504,-0.17185 -0.52808,-0.25783 -1.02933,-0.25783l-3.10567,0c-0.50068,0 -0.84467,0.08598 -1.02984,0.25977c-0.17632,0.17241 -0.26382,0.49019 -0.26382,0.95153l0,0.48851l1.21133,0.18898l0,-0.97583l0.00001,0.00002zm10.48724,0l-3.26981,0l0,3.24901l3.26981,0l0,-1.1025l1.21341,0.24588l0,0.60621c0,0.46558 -0.0875,0.7833 -0.26375,0.95713c-0.18718,0.17079 -0.53023,0.25677 -1.03041,0.25677l-3.10819,0c-0.50031,0 -0.84266,-0.08598 -1.03054,-0.25677c-0.17632,-0.17385 -0.26325,-0.49156 -0.26325,-0.95713l0,-2.70187c0,-0.46184 0.08693,-0.77943 0.26325,-0.95185c0.18232,-0.17079 0.51855,-0.25734 1.0071,-0.25995l0.02342,0l3.10819,0l0.02348,0c0.48957,0.00249 0.8246,0.08916 1.00692,0.25995c0.17626,0.17241 0.26375,0.49001 0.26375,0.95346l0,0.48745l-1.21341,0.19004l0,-0.97583l0.00001,0zm5.73426,0l0,4.21251l-1.21367,0l0,-4.21251l-2.3911,0l0,-0.91508l6.00698,0l0,0.91508l-2.40222,0l0.00001,0zm5.33737,2.16438l2.28107,0l-1.13078,-2.08419l-1.15029,2.08419zm-2.33043,2.04811l2.93617,-5.12758l1.17143,0l2.98686,5.12758l-1.36234,0l-0.62581,-1.12226l-3.30017,0l-0.60579,1.12226l-1.20035,0l-0.00001,0zm8.16514,0l0,-5.12758l1.21348,0l0,1.98843l3.78299,0l0,-1.98843l1.22313,0l0,5.12758l-1.22313,0l0,-2.20495l-3.78299,0l0,2.20495l-1.21348,0zm-135.52085,67.08189l2.27659,0l-1.12055,-2.08575l-1.15603,2.08575l-0.00001,0zm-2.32741,2.04656l2.9421,-5.12746l1.1655,0l2.98168,5.12746l-1.35874,0l-0.62422,-1.11858l-3.29664,0l-0.60358,1.11858l-1.2061,0zm8.90527,0l0,-5.12746l1.21045,0l0,4.1626l3.90072,0l0,0.96486l-5.11118,0zm7.17785,0l0,-2.29455l-2.69981,-2.83291l1.61341,0l1.78449,1.9701l1.79238,-1.9701l1.42143,0l-2.6909,2.80486l0,2.32259l-1.22099,0l-0.00001,0zm5.46104,0l0,-5.12746l1.22138,0l0,2.13984l2.882,-2.13984l1.75122,0l-3.44392,2.41624l3.86695,2.71122l-1.94269,0l-3.11356,-2.25499l0,2.25499l-1.22138,0zm15.99285,-4.29325l-2.75997,0l0,1.22283l2.75997,0c0.2101,0 0.35467,-0.0281 0.43534,-0.08337c0.08017,-0.05409 0.12083,-0.15048 0.12083,-0.28631l0,-0.48396c0,-0.1321 -0.04065,-0.22805 -0.12083,-0.28419c-0.08068,-0.05633 -0.22525,-0.08499 -0.43534,-0.08499zm0,2.06656l-2.75997,0l0,1.30439l2.75997,0c0.22903,0 0.38472,-0.03427 0.46382,-0.103c0.08068,-0.06779 0.12077,-0.18649 0.12077,-0.35678l0,-0.38913c0,-0.17023 -0.04009,-0.28949 -0.12077,-0.35553c-0.0791,-0.06624 -0.23478,-0.09994 -0.46382,-0.09994zm-3.95034,2.22669l0,-5.12746l4.45803,0c0.40996,0 0.70649,0.0797 0.88899,0.23902c0.18358,0.15664 0.27651,0.40975 0.27651,0.75612l0,0.6249c0,0.24588 -0.07803,0.44259 -0.23212,0.58851c-0.15461,0.1478 -0.37632,0.23846 -0.66425,0.27553c0.29798,0.03688 0.52859,0.14375 0.69165,0.31453c0.16193,0.17191 0.24267,0.39529 0.24267,0.66964l0,0.65475c0,0.3389 -0.1255,0.59257 -0.37776,0.75663c-0.2493,0.16231 -0.62385,0.24519 -1.12763,0.2478l-0.02412,0l-4.13197,0l0,0.00002zm9.4747,-2.04656l2.27716,0l-1.12169,-2.08575l-1.15546,2.08575l-0.00001,0zm-2.3269,2.04656l2.94217,-5.12746l1.16493,0l2.98168,5.12746l-1.35774,0l-0.62467,-1.11858l-3.29614,0l-0.60465,1.11858l-1.20559,0l0.00001,0zm8.89423,0l0,-5.12746l0.82675,0l3.66134,3.02208c0.12449,0.10051 0.23371,0.19465 0.32922,0.28476c0.09539,0.08916 0.182,0.18013 0.2606,0.27286c-0.019,-0.28787 -0.03226,-0.49206 -0.0385,-0.61076c-0.00681,-0.11976 -0.01055,-0.21247 -0.01055,-0.27716l0,-2.69177l1.08589,0l0,5.12746l-0.82574,0l-3.81752,-3.1667c-0.09217,-0.08125 -0.17304,-0.15422 -0.2416,-0.21883c-0.06956,-0.06449 -0.13295,-0.13073 -0.19147,-0.1984c0.01521,0.15721 0.02791,0.30825 0.03686,0.44832c0.0079,0.14076 0.01162,0.26158 0.01162,0.36557l0,2.77004l-1.0869,0l0.00001,-0.00001zm8.91063,0l0,-5.12746l1.22042,0l0,2.13984l2.88181,-2.13984l1.75122,0l-3.44278,2.41624l3.86708,2.71122l-1.94396,0l-3.11337,-2.25499l0,2.25499l-1.22042,0l0.00001,0zm12.04194,0l0,-5.12746l1.22099,0l0,2.13984l2.882,-2.13984l1.75122,0l-3.44342,2.41624l3.86645,2.71122l-1.94219,0l-3.11406,-2.25499l0,2.25499l-1.22099,0zm9.23367,0l0,-2.29455l-2.70057,-2.83291l1.61359,0l1.78486,1.9701l1.79181,-1.9701l1.42143,0l-2.6909,2.80486l0,2.32259l-1.22024,0l0.00001,0zm9.37268,-4.24004l-2.72203,0l0,1.42695l2.72203,0c0.2099,0 0.35258,-0.02934 0.43005,-0.08922c0.07696,-0.05988 0.11509,-0.16549 0.11509,-0.31703l0,-0.61817c0,-0.14836 -0.03813,-0.25367 -0.11509,-0.31249c-0.07746,-0.05931 -0.22013,-0.09004 -0.43005,-0.09004zm-3.91241,4.24004l0,-5.12746l4.4475,0c0.413,0 0.71223,0.07864 0.89853,0.23528c0.18465,0.1574 0.27752,0.41099 0.27752,0.75824l0,1.20569c0,0.34582 -0.09287,0.5973 -0.27752,0.75506c-0.18629,0.15789 -0.48553,0.23809 -0.89853,0.23809l-0.67751,0l2.39899,1.93509l-1.73632,0l-2.09516,-1.93509l-1.14713,0l0,1.93509l-1.19037,0zm13.10207,-4.20933l-3.77781,0l0,3.24446l3.77781,0l0,-1.14052l-1.97811,0l0,-0.8729l3.15308,0l0,1.76485c0,0.47087 -0.08914,0.78952 -0.26482,0.95876c-0.17487,0.16811 -0.50806,0.25204 -0.99909,0.25465l-0.02342,0l-3.58672,0l-0.02361,0c-0.49197,-0.00249 -0.82517,-0.08655 -0.99998,-0.25465c-0.17683,-0.16923 -0.26596,-0.48789 -0.26596,-0.95876l0,-2.69969c0,-0.46701 0.08914,-0.78529 0.26596,-0.9577c0.17764,-0.16973 0.51855,-0.25665 1.02358,-0.25665l3.58672,0c0.49709,0 0.8378,0.08431 1.01677,0.25204c0.18036,0.16818 0.27058,0.47337 0.27058,0.91389l0,0.11621l-1.17497,0.20824l0,-0.57226l0,0.00002zm5.15019,4.20933l0,-2.29455l-2.69981,-2.83291l1.61341,0l1.78449,1.9701l1.79181,-1.9701l1.42194,0l-2.69141,2.80486l0,2.32259l-1.22042,0l-0.00001,0zm4.74704,0l0,-0.5578l3.63483,-3.65153l-3.27012,0l0,-0.91813l5.21818,0l0,0.51032l-3.68924,3.65228l3.68924,0l0,0.96486l-5.58288,0l-0.00001,0zm12.23354,-4.22964l-3.40307,0l0,1.10038l3.24114,0c0.50819,0 0.85219,0.08636 1.03109,0.25715c0.17935,0.17241 0.26793,0.49013 0.26793,0.95627l0,0.70403c0,0.46502 -0.08858,0.7833 -0.26793,0.95515c-0.17607,0.16767 -0.51211,0.25404 -1.00749,0.25665l-0.02361,0l-3.21109,0l-0.02361,0c-0.49512,-0.00249 -0.83142,-0.08898 -1.00679,-0.25665c-0.17998,-0.17185 -0.26856,-0.49013 -0.26856,-0.95515l0,-0.14064l1.0674,-0.21864l0,0.60621l3.67384,0l0,-1.16931l-3.24077,0c-0.50535,0 -0.84625,-0.0858 -1.02415,-0.2561c-0.17569,-0.17241 -0.26482,-0.49013 -0.26482,-0.95733l0,-0.56553c0,-0.46701 0.08914,-0.78529 0.26482,-0.9577c0.1779,-0.16973 0.5188,-0.25665 1.02415,-0.25665l2.95056,0c0.48799,0 0.82567,0.08269 1.0109,0.24674c0.18572,0.16568 0.27809,0.45891 0.27809,0.87906l0,0.10636l-1.06803,0.24831l0,-0.58266l0.00001,0.00002zm6.21032,0.02031l0,4.20933l-1.21153,0l0,-4.20933l-2.38535,0l0,-0.91813l5.99234,0l0,0.91813l-2.39546,0zm4.66794,2.16277l2.27716,0l-1.12219,-2.08575l-1.15495,2.08575l-0.00001,0zm-2.3269,2.04656l2.9416,-5.12746l1.1655,0l2.98168,5.12746l-1.35881,0l-0.62474,-1.11858l-3.2955,0l-0.60415,1.11858l-1.20559,0l0.00001,0zm8.89417,0l0,-5.12746l0.82643,0l3.66165,3.02208c0.12456,0.10051 0.23371,0.19465 0.32878,0.28476c0.09589,0.08916 0.18194,0.18013 0.26053,0.27286c-0.01843,-0.28787 -0.03169,-0.49206 -0.0385,-0.61076c-0.00676,-0.11976 -0.01055,-0.21247 -0.01055,-0.27716l0,-2.69177l1.08697,0l0,5.12746l-0.82624,0l-3.8179,-3.1667c-0.09236,-0.08125 -0.17322,-0.15422 -0.24179,-0.21883c-0.06849,-0.06449 -0.13295,-0.13073 -0.19198,-0.1984c0.01572,0.15721 0.02898,0.30825 0.03794,0.44832c0.00694,0.14076 0.01111,0.26158 0.01111,0.36557l0,2.77004l-1.08646,0l0.00001,-0.00001z" id="path12"/>
  </g>
 </g>
</svg>